PathFileType	4	(X/Y/Z)	D:\Long Term Storage\D'Arcy Smith\Coord20.trc
DataRate	CameraRate	NumFrames	NumMarkers	Units	OrigDataRate	OrigDataStartFrame	OrigNumFrames
120.00	120.00	      104	4	mm	120.00	1	      4839
Frame#	Time	M1			M2			M3			M4			
		X1	Y1	Z1	X2	Y2	Z2	X3	Y3	Z3	X4	Y4	Z4	

1	0.000	622.37714	392.19272	490.20807	901.46722	518.50885	-18.77455							
2	0.008	618.45337	395.19330	497.54102	899.35968	518.58301	-16.65055							
3	0.017	614.86572	397.72235	503.10428	897.08972	517.28680	-13.51728							
4	0.025	611.59680	399.94205	507.28751	894.66095	514.68054	-9.18466							
5	0.033	608.77588	401.30972	510.00000	892.26910	510.80847	-3.89112							
6	0.042	606.37073	402.32272	511.24548	889.91656	505.95410	2.51287							
7	0.050	604.21082	402.65140	510.84534	887.64648	499.97165	9.98400							
8	0.058	602.93964	402.67874	509.65787	885.38074	493.25110	18.56947							
9	0.067	601.89539	402.15268	506.44113	883.32294	485.92593	28.23425							
10	0.075	601.74786	401.06027	502.07050	881.36298	477.96967	38.81086							
11	0.083	601.52716	399.44519	496.36081	879.70166	469.79141	50.15054							
12	0.092	602.90332	398.16318	488.85922	878.14349	461.23944	62.41111							
13	0.100	604.27496	396.17508	479.88141	877.02911	452.73785	75.25333							
14	0.108	606.08234	393.84607	469.12076	876.18567	444.45529	88.67845							
15	0.117	609.09399	392.17154	455.55167	875.64777	436.60245	101.96681							
16	0.125	611.37726	390.49072	441.33807	875.38025	428.35342	116.90225							
17	0.133	614.82867	388.47861	425.21628	875.57245	421.32593	131.16347							
18	0.142	618.37476	387.84995	406.60452	875.88470	414.63632	145.74677							
19	0.150	622.07977	387.85144	386.40839	876.43933	408.92917	159.54356							
20	0.158	626.01453	388.88132	364.61353	877.09540	403.87009	172.92047							
21	0.167	630.03210	391.19043	341.04056	877.83142	399.68045	185.19510							
22	0.175	633.95563	395.04755	316.59543	878.38782	396.33243	196.14525							
23	0.183	637.76740	400.49200	291.02219	878.89331	393.65491	205.55957							
24	0.192	641.54675	407.86990	264.77170	879.11200	391.71017	213.11098							
25	0.200	644.72412	416.86087	238.50165	879.08057	390.30991	218.65134							
26	0.208	647.94189	428.13104	211.80923	878.90320	389.50299	222.45074							
27	0.217	650.15863	440.42795	186.17171	878.25696	389.04440	224.32054							
28	0.225	651.77545	454.16467	161.10185	877.36047	388.85471	224.72943							
29	0.233	652.81519	469.10541	137.15044	876.32758	388.98361	223.67644							
30	0.242	653.13074	485.72995	114.32112	875.24841	389.39709	221.58978							
31	0.250	652.83838	502.60855	93.06123	874.23566	390.05505	218.74556							
32	0.258	652.06897	520.05408	73.38086	873.11456	390.69598	215.53046							
33	0.267	650.45898	537.51501	55.69886	872.09357	391.47681	212.07439							
34	0.275	648.23682	554.36096	40.44928	871.27917	392.46344	208.30203							
35	0.283	645.40186	570.93494	26.38331	870.72943	393.26990	204.81116							
36	0.292	642.30359	586.62872	14.60034	870.23169	394.22064	201.41721							
37	0.300	638.92218	601.44574	4.68004	870.00214	394.95670	198.48157							
38	0.308	635.37616	613.52423	-2.91205	870.06329	395.62399	195.92873							
39	0.317	631.97455	624.15594	-9.15319	870.19556	396.00897	194.08116							
40	0.325	628.58228	632.42102	-13.84262	870.47656	396.14844	193.05692							
41	0.333	625.27502	638.76062	-17.42982	870.75665	395.98993	192.57207							
42	0.342	622.20245	641.70862	-19.43864	871.42548	395.71484	192.95436							
43	0.350	619.46155	643.36517	-20.69401	872.03528	395.04153	193.96080							
44	0.358	617.02240	641.78680	-20.48172	872.71436	394.04105	195.77876							
45	0.367	614.92670	638.83588	-19.52160	873.48608	392.84946	198.10889							
46	0.375	613.21576	633.94568	-17.86428	874.39783	391.55322	201.03409							
47	0.383	611.77289	627.50281	-15.40737	875.21368	390.09216	204.59111							
48	0.392	610.70319	619.68549	-12.29775	876.08685	388.44293	208.57121							
49	0.400	609.84863	610.84137	-8.57914	877.07556	386.64496	212.99388							
50	0.408	608.99969	600.93488	-4.31526	877.89038	384.99170	217.81552							
51	0.417	608.48901	590.26398	0.32685	878.79474	383.18811	222.74687							
52	0.425	607.97205	578.90009	5.67962	879.54053	381.47485	228.01944							
53	0.433	607.48486	566.79211	11.34785	880.34314	379.91083	233.27875							
54	0.442	607.07904	553.93384	18.09859	881.33905	377.52625	241.49741							
55	0.450	606.50586	540.81281	24.72765	882.29413	375.61969	247.47850							
56	0.458	606.19257	527.31195	32.02229	883.15735	373.65860	254.16870							
57	0.467	606.09924	513.61322	39.88159	884.23431	371.64471	261.20459							
58	0.475	606.28137	499.95627	47.87041	885.34967	369.57605	269.08041							
59	0.483	606.77606	485.83380	57.23641	886.63861	367.52109	278.05176							
60	0.492	607.20044	471.08719	67.64878	888.34589	365.28647	288.25174							
61	0.500	607.82788	456.26447	79.30511	890.17511	363.48734	298.83694							
62	0.508	608.50531	441.17502	92.27757	892.61591	362.02902	310.45166							
63	0.517	609.36676	426.36588	106.42006	895.42047	361.06631	322.79553							
64	0.525	610.21393	411.23380	122.53621	898.71924	360.57343	336.28604							
65	0.533	611.26361	397.32504	139.59071	902.29852	360.67453	349.96521							
66	0.542	612.33203	384.21536	158.48581	906.17639	361.26279	363.99823							
67	0.550	613.07330	371.95511	178.89018	910.47461	362.29663	378.39188							
68	0.558	613.15698	360.18146	201.41922	915.02893	364.02197	392.59256							
69	0.567	613.54523	350.44138	224.95662	919.63367	366.42154	407.05579							
70	0.575	613.51227	342.65289	250.07381	924.41095	369.17142	421.11575							
71	0.583	613.05469	336.73019	276.14148	929.27435	373.04391	434.50046							
72	0.592	612.50555	332.72379	303.21759	934.20502	377.01352	446.61554							
73	0.600	611.74274	331.04230	330.47134	938.88000	381.26538	458.27222							
74	0.608	610.62323	331.36838	357.92801	943.33154	385.72092	468.42975							
75	0.617	609.47717	333.92496	385.45297	947.32080	390.27930	477.27377							
76	0.625	608.47327	339.14752	412.96884	951.15137	395.07516	486.82626							
77	0.633	606.72644	345.11572	438.31525	954.44708	399.26685	493.98099							
78	0.642	605.69147	353.42334	463.21167	957.20313	402.88647	500.67795							
79	0.650	604.04681	362.81863	488.52682	959.45166	406.13480	505.81833							
80	0.658	602.54797	373.53192	510.68619	961.07422	409.13113	509.84085							
81	0.667	600.83270	385.43015	531.73315	962.32806	411.08380	513.81738							
82	0.675	599.27716	398.07748	550.86768	962.95892	412.75308	516.90979							
83	0.683	597.75970	411.32385	568.32941	963.29633	413.69452	519.07062							
84	0.692	596.34460	425.04251	583.88727	963.32672	414.31207	520.69501							
85	0.700	594.83447	438.83798	597.77594	963.06256	414.43851	521.68469							
86	0.708	593.58148	452.58289	609.92047	962.42139	414.14941	522.12488							
87	0.717	592.47357	465.58640	620.24524	961.62683	413.53659	522.15814							
88	0.725	591.63538	477.44684	628.76208	960.40033	412.59250	522.06946							
89	0.733	591.14368	488.03323	635.66119	959.36536	411.61902	522.02502							
90	0.742	590.90845	497.39877	641.38458	958.29993	410.60803	521.39496							
91	0.750	591.37799	504.52060	645.03583	957.14569	409.51807	520.32324							
92	0.758	592.18024	509.42322	646.81866	955.97913	408.40457	519.29639							
93	0.767	593.69702	512.22955	647.58289	954.98297	407.66241	518.23431							
94	0.775	595.65741	512.67426	646.86505	954.19501	407.03455	517.07788							
95	0.783	597.85730	510.95169	644.43555	953.60938	406.53998	515.73950							
96	0.792	600.19135	507.44843	640.75897	953.14429	406.05139	514.49213							
97	0.800	602.63147	502.05887	635.56323	952.85547	405.68549	513.09253							
98	0.808	604.85443	494.37936	628.06641	953.00555	405.19598	511.75049							
99	0.817	606.77594	485.90836	619.70868	952.58722	405.16647	510.51172							
100	0.825	608.61237	476.07605	609.52130	952.63214	404.92038	509.13321							
101	0.833	610.25641	465.28262	597.42957	952.59308	404.65106	507.70581							
102	0.842	611.86517	454.10614	583.27197	952.62567	404.21329	506.23621							
103	0.850	613.42590	442.15482	567.22583	952.61761	403.79883	504.74908							
104	0.858	614.89825	430.22745	548.97980	952.67102	403.33197	502.70749							
